<?xml version="1.0" encoding="utf-8"?>
<!-- Generator: Adobe Illustrator 26.0.1, SVG Export Plug-In . SVG Version: 6.00 Build 0)  -->
<svg version="1.1" id="Layer_1" xmlns="http://www.w3.org/2000/svg" xmlns:xlink="http://www.w3.org/1999/xlink" x="0px" y="0px"
	 viewBox="0 0 420 280" style="enable-background:new 0 0 420 280;" xml:space="preserve">
<style type="text/css">
	.st0{fill:#4695EB;}
	.st1{fill:#091313;}
</style>
<path class="st0" d="M99.6,242.9H44.4V39.3h55.2v24H74.1v155.5h25.5V242.9z"/>
<path class="st0" d="M320.4,218.8h25.4V63.4h-25.4v-24h55.1v203.5h-55.1V218.8z"/>
<path class="st1" d="M210,240.6c-56.8,0-102.9-46.1-102.9-102.9c0-56.8,46.1-102.9,102.9-102.9s102.9,46.1,102.9,102.9v0
	C312.8,194.5,266.8,240.5,210,240.6z M210,50.8c-48,0-86.9,38.9-86.9,86.9s38.9,86.9,86.9,86.9s86.9-38.9,86.9-86.9l0,0
	C296.8,89.8,257.9,50.9,210,50.8z"/>
<path class="st1" d="M210,199.7c-27.1,0.1-51.2-17.6-59.2-43.5c-1.2-4.2,1.2-8.7,5.4-9.9c4.1-1.2,8.5,1.1,9.8,5.2
	c7.6,24.2,33.4,37.7,57.6,30.2c14.4-4.5,25.7-15.8,30.2-30.2c1.2-4.2,5.7-6.7,9.9-5.4s6.7,5.7,5.4,9.9c0,0.1-0.1,0.2-0.1,0.3
	C261.2,182.1,237.1,199.8,210,199.7z"/>
<ellipse class="st1" cx="180.1" cy="106.7" rx="10.9" ry="17.8"/>
<path class="st1" d="M248.9,122.5c-0.7,0-1.4-0.2-2-0.5l-18.5-10.6c-1.9-1.1-2.6-3.5-1.5-5.5c0.4-0.6,0.9-1.1,1.5-1.5l18.5-10.6
	c1.9-1.1,4.4-0.4,5.5,1.5s0.4,4.4-1.5,5.5l-12.5,7.2l12.5,7.2c1.9,1.1,2.6,3.5,1.5,5.5C251.6,121.8,250.3,122.5,248.9,122.5z"/>
</svg>
